<svg width="28" height="24.999999999999996" xmlns="http://www.w3.org/2000/svg">

 <g>
  <title>background</title>
  <rect fill="none" id="canvas_background" height="602" width="802" y="-1" x="-1"/>
 </g>
 <g>
  <title>Layer 1</title>
  <path id="svg_1" fill="#E8AA31" d="m20.1004,0c-2.3835,0 -4.6148,1.00889 -6.1004,2.69927c-1.4856,-1.69044 -3.7168,-2.69927 -6.10043,-2.69927c-4.35582,0 -7.89957,3.31281 -7.89957,7.3849c0,3.1886 2.03385,6.8767 6.04492,10.9619c3.08683,3.1438 6.44478,5.578 7.40048,6.2492l0.5544,0.3894l0.5545,-0.3893c0.9556,-0.6712 4.3137,-3.1054 7.4006,-6.2491c4.0112,-4.0852 6.0451,-7.7734 6.0451,-10.9621c0,-4.07209 -3.5438,-7.3849 -7.8996,-7.3849z"/>
 </g>
</svg>