<svg width="28" height="25" viewBox="0 0 28 25" fill="none" xmlns="http://www.w3.org/2000/svg">
<path d="M19.5426 0C17.2252 0 15.0558 0.980887 13.6114 2.62435C12.1671 0.980831 9.9978 0 7.68033 0C3.4454 0 0 3.22087 0 7.17994C0 10.2801 1.9774 13.8658 5.87715 17.8376C8.87831 20.8942 12.1431 23.2608 13.0722 23.9134L13.6113 24.292L14.1503 23.9134C15.0794 23.2609 18.3443 20.8943 21.3456 17.8378C25.2454 13.8659 27.2229 10.2801 27.2229 7.17994C27.2229 3.22087 23.7775 0 19.5426 0ZM20.0232 16.703C17.5547 19.217 14.8989 21.2494 13.6113 22.186C12.3237 21.2494 9.66802 19.217 7.19947 16.7029C3.66378 13.102 1.79492 9.80893 1.79492 7.17994C1.79492 4.14616 4.43512 1.67797 7.68033 1.67797C9.81592 1.67797 11.7878 2.76608 12.8265 4.51772L13.6114 5.84142L14.3964 4.51772C15.435 2.76614 17.4069 1.67797 19.5426 1.67797C22.7878 1.67797 25.428 4.14611 25.428 7.17994C25.428 9.80904 23.559 13.1021 20.0232 16.703Z" fill="#E8AA31"/>
</svg>
